<?xml version="1.0" encoding="UTF-8"?>
<svg width="1030px" height="1001px" viewBox="0 0 1030 1001" version="1.1" xmlns="http://www.w3.org/2000/svg" xmlns:xlink="http://www.w3.org/1999/xlink">
    <title>Artboard</title>
    <g id="Artboard" stroke="none" stroke-width="1" fill="none" fill-rule="evenodd">
        <path d="M540.333191,422.490398 C544.11476,392.144575 548.895,361.773512 555.281737,331.862814 C560.142672,309.097851 565.980545,286.219481 573.688566,264.239964 C580.119273,245.906005 588.457527,226.316308 599.884785,210.501226 C615.953635,188.262418 632.851845,166.637765 650.398316,145.544146 C663.090421,130.285673 676.122997,115.38055 689.284113,100.527924 C693.256892,96.0454335 697.24955,91.570178 701.151574,87.0266082 C708.913504,77.9857405 720.928036,72 732.918141,72 C741.311989,72 749.481777,75.2361766 755.677473,80.8843843 C768.187129,92.2861314 771.316901,111.364649 771.531864,127.434479 C772.032379,164.936976 771.296348,202.579803 765.973309,239.764285 C761.135791,273.557454 752.581057,305.814898 740.577475,337.765601 C734.51891,353.88978 723.310491,370.445719 713.230966,384.352882 C700.153914,402.393057 685.912591,419.731075 671.728208,436.911769 C669.513378,439.593692 667.295684,442.273764 665.078832,444.95434 C653.370066,459.106829 641.558536,473.273957 630.410259,487.87133 C623.238467,497.261845 614.908637,508.380239 609.437515,519.153866 C599.884785,530.493744 593.766415,520.293334 594.873915,517.736429 C600.311174,505.182763 610.025801,491.96379 618.278642,481.07238 C629.86628,465.779414 642.219431,450.972724 654.453138,436.190095 C656.597718,433.598361 658.741961,431.006963 660.884182,428.413209 C674.839955,411.515531 688.862946,394.464567 701.747945,376.734498 C711.155626,363.789287 722.030145,347.947451 727.672933,332.925386 C739.2695,302.054586 747.54778,270.889833 752.255748,238.244714 C757.535491,201.629293 758.244735,164.551657 757.75096,127.619062 C757.544588,112.086155 753.375208,85.7646457 732.918141,85.7646457 C724.917494,85.7646457 716.78241,89.9713556 711.61874,95.9845228 C707.669546,100.583282 703.62719,105.11255 699.605724,109.649389 C686.545351,124.383222 673.616382,139.172413 661.024515,154.312598 C643.671613,175.178391 626.957031,196.567141 611.062039,218.562811 C570.15818,275.167718 552.79854,417.293805 547.674965,487.465482 C547.526883,489.489334 546.495362,491.355187 544.845063,492.541264 C543.223235,493.706476 541.145873,494.131 539.200421,493.66929 C531.808612,491.914657 522.943394,490.436479 515.286588,490.436479 C507.053119,490.436479 498.185206,491.914657 490.790028,493.66929 C488.843059,494.131 486.766203,493.706139 485.145892,492.537562 C483.499299,491.349803 482.468789,489.48681 482.320707,487.465482 C477.199154,417.296329 459.843725,275.165362 418.941214,218.562811 C403.045716,196.566299 386.327934,175.177381 368.972168,154.312598 C356.378784,139.173423 343.447457,124.384737 330.388094,109.648548 C326.368987,105.11255 322.332358,100.582778 318.384007,95.9848593 C313.218989,89.9689999 305.083906,85.7646457 297.078373,85.7646457 C276.620969,85.7646457 272.453947,112.085313 272.246228,127.619062 C271.751947,164.552498 272.462034,201.630134 277.742788,238.24606 C282.450418,270.890843 290.729541,302.055091 302.326108,332.925386 C307.968391,347.944927 318.83954,363.783903 328.245368,376.727768 C341.125987,394.454135 355.144766,411.502575 369.096328,428.396551 C371.243266,430.996026 373.392226,433.59264 375.54068,436.190095 C387.775904,450.975584 400.13175,465.784294 411.72461,481.077596 C419.977115,491.965641 429.696964,505.185119 435.132876,517.736429 C436.241723,520.295689 435.132876,532.80719 418.941214,519.153866 C413.467566,508.37923 406.760573,497.268575 399.588782,487.877555 C388.439157,473.277827 376.625605,459.10868 364.914818,444.95434 C362.693418,442.269557 360.471849,439.584269 358.253143,436.896962 C344.069604,419.719634 329.828785,402.38498 316.755103,384.346825 C306.676084,370.441849 295.46918,353.887929 289.41348,337.765601 C277.413267,305.817254 268.860892,273.561829 264.024384,239.772867 C258.700166,202.585524 257.963798,164.940341 258.463807,127.434479 C258.679276,111.363134 261.811407,92.2856266 274.322073,80.8833747 C280.516253,75.2385323 288.686546,72 297.078373,72 C309.07151,72 321.078799,77.985404 328.843256,87.0261034 C332.74511,91.570178 336.739285,96.0454335 340.712064,100.527924 C353.874023,115.379204 366.908115,130.282308 379.600725,145.540444 C397.150059,166.634905 414.050797,188.260399 430.120994,210.501226 C441.548084,226.316308 449.887012,245.907519 456.315697,264.242488 C464.023213,286.223687 469.859232,309.104077 474.719662,331.870385 C481.104041,361.779738 485.881754,392.149791 489.662986,422.493259 C491.986646,441.140522 493.955178,459.879487 495.466492,478.617779 C501.771018,477.473095 508.51979,476.665607 514.712959,476.665607 C521.477903,476.665607 528.226002,477.473095 534.530022,478.617779" id="logo-blue-copy" fill="#EAE0D0"></path>
        <polyline id="Path-2" fill="#EAE0D0" points="418.941214 519.153866 514.997956 655.301758 609.437515 519.153866 594.873915 517.736429 514.997956 633.121277 435.132876 517.736429"></polyline>
        <line x1="435.132876" y1="654.736429" x2="418.941214" y2="656.153866" id="Path-3" fill="#405475"></line>
        <text id="Thanks-for-the-Memor" font-family="PlayfairDisplay-Regular, Playfair Display" font-size="73" font-weight="normal" letter-spacing="0.673627956" fill="#EAE0D0">
            <tspan x="86.2284645" y="799">Thanks for the Memories!</tspan>
            <tspan x="333.989046" y="901.1">2015 - 2023</tspan>
        </text>
    </g>
</svg>